<svg xmlns="http://www.w3.org/2000/svg" width="640" height="400" viewBox="0 0 640 400" role="img" aria-label="ADVP dashboard preview">
  <defs>
    <linearGradient id="bg" x1="0" y1="0" x2="0" y2="1">
      <stop offset="0%" stop-color="#f8fafc" />
      <stop offset="100%" stop-color="#e2e8f0" />
    </linearGradient>
  </defs>
  <rect width="640" height="400" fill="url(#bg)" />
  <rect x="16" y="16" width="608" height="48" rx="10" fill="#fff" stroke="#e2e8f0" />
  <text x="32" y="46" font-family="Inter, Arial, sans-serif" font-size="14" font-weight="600" fill="#0f172a">Data Pipeline Validation</text>
  <rect x="16" y="80" width="180" height="120" rx="10" fill="#fff" stroke="#e2e8f0" />
  <rect x="28" y="150" width="24" height="40" fill="#3b82f6" rx="4" />
  <rect x="58" y="130" width="24" height="60" fill="#60a5fa" rx="4" />
  <rect x="88" y="110" width="24" height="80" fill="#93c5fd" rx="4" />
  <rect x="118" y="125" width="24" height="65" fill="#3b82f6" rx="4" />
  <rect x="212" y="80" width="180" height="120" rx="10" fill="#fff" stroke="#e2e8f0" />
  <circle cx="302" cy="140" r="42" fill="none" stroke="#22c55e" stroke-width="10" />
  <text x="302" y="146" text-anchor="middle" font-family="Inter, Arial, sans-serif" font-size="16" font-weight="700" fill="#0f172a">92%</text>
  <rect x="408" y="80" width="216" height="120" rx="10" fill="#fff" stroke="#e2e8f0" />
  <rect x="424" y="104" width="184" height="10" rx="5" fill="#dcfce7" />
  <rect x="424" y="124" width="160" height="10" rx="5" fill="#fef9c3" />
  <rect x="424" y="144" width="140" height="10" rx="5" fill="#fee2e2" />
  <rect x="16" y="216" width="608" height="168" rx="10" fill="#fff" stroke="#e2e8f0" />
  <text x="32" y="244" font-family="Inter, Arial, sans-serif" font-size="12" font-weight="600" fill="#64748b">Validation runs</text>
  <rect x="32" y="260" width="576" height="8" rx="4" fill="#e2e8f0" />
  <rect x="32" y="260" width="420" height="8" rx="4" fill="#3b82f6" />
  <rect x="32" y="290" width="576" height="8" rx="4" fill="#e2e8f0" />
  <rect x="32" y="290" width="360" height="8" rx="4" fill="#22c55e" />
  <rect x="32" y="320" width="576" height="8" rx="4" fill="#e2e8f0" />
  <rect x="32" y="320" width="280" height="8" rx="4" fill="#f59e0b" />
</svg>
